<?xml version="1.0" standalone="no"?>
<!DOCTYPE svg PUBLIC "-//W3C//DTD SVG 20010904//EN"
 "http://www.w3.org/TR/2001/REC-SVG-20010904/DTD/svg10.dtd">
<svg version="1.0" xmlns="http://www.w3.org/2000/svg"
 width="500.000000pt" height="222.000000pt" viewBox="0 0 500.000000 222.000000"
 preserveAspectRatio="xMidYMid meet">

<g transform="translate(0.000000,222.000000) scale(0.100000,-0.100000)"
fill="#000000" stroke="none">
<path d="M162 1910 c-19 -12 -41 -38 -52 -63 -18 -39 -20 -70 -20 -471 l0
-429 42 6 c48 6 84 30 116 77 21 32 22 40 23 304 1 149 1 274 0 279 -4 25 44
-28 294 -327 l280 -335 78 0 77 -1 0 491 0 492 -42 -6 c-49 -7 -86 -32 -113
-78 -18 -31 -20 -57 -25 -302 l-5 -269 -273 326 c-268 321 -273 326 -310 326
-20 0 -52 -9 -70 -20z"/>
<path d="M1170 1609 c0 -259 3 -333 16 -383 30 -116 97 -199 203 -249 53 -25
79 -31 161 -35 60 -3 118 0 151 8 157 36 262 153 288 320 6 36 11 199 11 363
l0 297 -31 0 c-48 0 -98 -29 -127 -73 l-27 -40 -5 -276 -5 -276 -28 -48 c-33
-56 -72 -82 -143 -97 -108 -23 -208 24 -252 118 l-27 57 -3 318 -3 317 -90 0
-89 0 0 -321z"/>
<path d="M2165 1898 c10 -48 39 -90 77 -113 29 -18 56 -21 223 -25 183 -5 192
-6 247 -33 131 -65 194 -218 154 -376 -44 -172 -152 -234 -397 -229 l-124 3
-3 233 c-2 221 -3 232 -22 232 -55 0 -112 -43 -141 -105 -16 -35 -19 -68 -19
-287 l0 -248 233 0 c261 0 327 10 428 60 148 75 249 248 249 430 0 165 -83
329 -208 409 -107 68 -139 74 -435 79 l-269 4 7 -34z"/>
<path d="M3487 1923 c-3 -5 -89 -209 -190 -453 -102 -245 -193 -462 -201 -482
l-16 -38 97 0 98 0 143 358 c78 196 145 367 148 380 4 12 9 22 13 22 3 0 64
-143 135 -317 71 -175 139 -337 152 -360 33 -57 92 -85 172 -81 l60 3 -208
485 -209 485 -95 3 c-52 1 -97 -1 -99 -5z"/>
<path d="M3933 1923 c3 -5 91 -217 197 -472 105 -256 196 -473 201 -483 9 -17
21 -18 102 -16 l91 3 80 200 c43 110 130 328 192 485 l112 285 -46 3 c-62 5
-112 -11 -145 -46 -24 -25 -97 -200 -240 -575 -38 -100 -42 -107 -53 -85 -6
13 -67 158 -135 323 -67 165 -130 312 -140 326 -11 15 -37 34 -59 43 -40 16
-165 23 -157 9z"/>
<path d="M1527 630 c-31 -25 -43 -72 -27 -110 13 -30 47 -51 118 -70 41 -11
82 -40 82 -59 0 -4 -10 -21 -22 -36 -19 -25 -26 -27 -70 -23 -28 3 -62 14 -78
26 -25 19 -30 20 -41 6 -27 -33 72 -80 149 -71 84 9 129 91 82 149 -20 27 -48
40 -118 58 -26 7 -48 20 -58 35 -15 23 -15 27 0 50 22 34 89 38 135 8 21 -13
25 -13 39 0 13 14 11 18 -19 36 -47 29 -136 29 -172 1z"/>
<path d="M1817 643 c-4 -3 -7 -12 -7 -20 0 -9 17 -13 60 -13 l60 0 0 -155 c0
-148 1 -155 20 -155 19 0 20 7 20 155 l0 155 60 0 c53 0 60 2 60 20 0 19 -7
20 -133 20 -74 0 -137 -3 -140 -7z"/>
<path d="M2180 538 c0 -62 5 -129 10 -149 31 -112 190 -135 250 -36 17 27 20
51 20 165 0 124 -1 132 -19 132 -18 0 -20 -10 -23 -136 -3 -135 -3 -136 -31
-160 -37 -32 -87 -32 -124 0 -28 24 -28 27 -33 158 -5 129 -6 133 -27 136 -23
3 -23 2 -23 -110z"/>
<path d="M2590 475 l0 -175 91 0 c74 0 98 4 129 21 51 29 84 90 84 154 -2 118
-74 175 -224 175 l-80 0 0 -175z m197 115 c41 -25 63 -68 63 -124 0 -81 -70
-136 -172 -136 l-38 0 0 140 0 140 58 0 c39 0 67 -6 89 -20z"/>
<path d="M3010 476 c0 -176 0 -176 23 -176 l22 0 -2 172 c-2 166 -3 173 -22
176 -21 3 -21 -1 -21 -172z"/>
<path d="M3274 640 c-58 -23 -104 -101 -104 -175 1 -64 54 -142 113 -164 154
-59 297 118 214 264 -34 59 -78 85 -146 84 -31 0 -65 -4 -77 -9z m168 -71
c100 -119 -30 -298 -159 -219 -65 39 -85 136 -43 205 12 19 22 35 23 35 1 0
19 6 41 14 53 18 104 6 138 -35z"/>
</g>
</svg>
